<?xml version="1.0" encoding="utf-8" standalone="no"?>
<!DOCTYPE svg PUBLIC "-//W3C//DTD SVG 1.1//EN"
  "http://www.w3.org/Graphics/SVG/1.1/DTD/svg11.dtd">
<svg xmlns:xlink="http://www.w3.org/1999/xlink" width="1152pt" height="648pt" viewBox="0 0 1152 648" xmlns="http://www.w3.org/2000/svg" version="1.1">
 <metadata>
  <rdf:RDF xmlns:dc="http://purl.org/dc/elements/1.1/" xmlns:cc="http://creativecommons.org/ns#" xmlns:rdf="http://www.w3.org/1999/02/22-rdf-syntax-ns#">
   <cc:Work>
    <dc:type rdf:resource="http://purl.org/dc/dcmitype/StillImage"/>
    <dc:date>2026-08-03T14:41:40.087248</dc:date>
    <dc:format>image/svg+xml</dc:format>
    <dc:creator>
     <cc:Agent>
      <dc:title>Matplotlib v3.11.0, https://matplotlib.org/</dc:title>
     </cc:Agent>
    </dc:creator>
   </cc:Work>
  </rdf:RDF>
 </metadata>
 <defs>
  <style type="text/css">*{stroke-linejoin: round; stroke-linecap: butt}</style>
 </defs>
 <g id="figure_1">
  <g id="patch_1">
   <path d="M 0 648 
L 1152 648 
L 1152 0 
L 0 0 
z
" style="fill: #ffffff"/>
  </g>
  <g id="axes_1">
   <g id="patch_2">
    <path d="M 1052.616797 178.583203 
Q 1065.601422 165.598578 1077.004909 154.195091 
" clip-path="url(#pcf5735b658)" style="fill: none; stroke: #d64545; stroke-width: 2; stroke-linecap: round"/>
    <path d="M 1070.216684 156.457833 
L 1077.004909 154.195091 
L 1074.742167 160.983316 
z
" clip-path="url(#pcf5735b658)" style="fill: #d64545; stroke: #d64545; stroke-width: 2; stroke-linecap: round"/>
   </g>
   <g id="patch_3">
    <path d="M 305.4 347.201895 
Q 305.4 339.479513 305.4 333.210575 
" clip-path="url(#pcf5735b658)" style="fill: none; stroke: #2e8b57; stroke-width: 1.3; stroke-linecap: round"/>
    <path d="M 302.2 339.610575 
L 305.4 333.210575 
L 308.6 339.610575 
z
" clip-path="url(#pcf5735b658)" style="fill: #2e8b57; stroke: #2e8b57; stroke-width: 1.3; stroke-linecap: round"/>
   </g>
   <g id="patch_4">
    <path d="M 373.2 347.201895 
Q 373.2 339.479513 373.2 333.210575 
" clip-path="url(#pcf5735b658)" style="fill: none; stroke: #2e8b57; stroke-width: 1.3; stroke-linecap: round"/>
    <path d="M 370 339.610575 
L 373.2 333.210575 
L 376.4 339.610575 
z
" clip-path="url(#pcf5735b658)" style="fill: #2e8b57; stroke: #2e8b57; stroke-width: 1.3; stroke-linecap: round"/>
   </g>
   <g id="patch_5">
    <path d="M 441 347.201895 
Q 441 339.479513 441 333.210575 
" clip-path="url(#pcf5735b658)" style="fill: none; stroke: #2e8b57; stroke-width: 1.3; stroke-linecap: round"/>
    <path d="M 437.8 339.610575 
L 441 333.210575 
L 444.2 339.610575 
z
" clip-path="url(#pcf5735b658)" style="fill: #2e8b57; stroke: #2e8b57; stroke-width: 1.3; stroke-linecap: round"/>
   </g>
   <g id="patch_6">
    <path d="M 508.8 347.201895 
Q 508.8 339.479513 508.8 333.210575 
" clip-path="url(#pcf5735b658)" style="fill: none; stroke: #2e8b57; stroke-width: 1.3; stroke-linecap: round"/>
    <path d="M 505.6 339.610575 
L 508.8 333.210575 
L 512 339.610575 
z
" clip-path="url(#pcf5735b658)" style="fill: #2e8b57; stroke: #2e8b57; stroke-width: 1.3; stroke-linecap: round"/>
   </g>
   <g id="patch_7">
    <path d="M 576.6 347.201895 
Q 576.6 339.479513 576.6 333.210575 
" clip-path="url(#pcf5735b658)" style="fill: none; stroke: #2e8b57; stroke-width: 1.3; stroke-linecap: round"/>
    <path d="M 573.4 339.610575 
L 576.6 333.210575 
L 579.8 339.610575 
z
" clip-path="url(#pcf5735b658)" style="fill: #2e8b57; stroke: #2e8b57; stroke-width: 1.3; stroke-linecap: round"/>
   </g>
   <g id="patch_8">
    <path d="M 644.4 347.201895 
Q 644.4 339.479513 644.4 333.210575 
" clip-path="url(#pcf5735b658)" style="fill: none; stroke: #2e8b57; stroke-width: 1.3; stroke-linecap: round"/>
    <path d="M 641.2 339.610575 
L 644.4 333.210575 
L 647.6 339.610575 
z
" clip-path="url(#pcf5735b658)" style="fill: #2e8b57; stroke: #2e8b57; stroke-width: 1.3; stroke-linecap: round"/>
   </g>
   <g id="patch_9">
    <path d="M 712.2 347.201895 
Q 712.2 339.479513 712.2 333.210575 
" clip-path="url(#pcf5735b658)" style="fill: none; stroke: #2e8b57; stroke-width: 1.3; stroke-linecap: round"/>
    <path d="M 709 339.610575 
L 712.2 333.210575 
L 715.4 339.610575 
z
" clip-path="url(#pcf5735b658)" style="fill: #2e8b57; stroke: #2e8b57; stroke-width: 1.3; stroke-linecap: round"/>
   </g>
   <g id="patch_10">
    <path d="M 780 347.201895 
Q 780 339.479513 780 333.210575 
" clip-path="url(#pcf5735b658)" style="fill: none; stroke: #2e8b57; stroke-width: 1.3; stroke-linecap: round"/>
    <path d="M 776.8 339.610575 
L 780 333.210575 
L 783.2 339.610575 
z
" clip-path="url(#pcf5735b658)" style="fill: #2e8b57; stroke: #2e8b57; stroke-width: 1.3; stroke-linecap: round"/>
   </g>
   <g id="patch_11">
    <path d="M 847.8 347.201895 
Q 847.8 339.479513 847.8 333.210575 
" clip-path="url(#pcf5735b658)" style="fill: none; stroke: #2e8b57; stroke-width: 1.3; stroke-linecap: round"/>
    <path d="M 844.6 339.610575 
L 847.8 333.210575 
L 851 339.610575 
z
" clip-path="url(#pcf5735b658)" style="fill: #2e8b57; stroke: #2e8b57; stroke-width: 1.3; stroke-linecap: round"/>
   </g>
   <g id="patch_12">
    <path d="M 915.6 347.201895 
Q 915.6 339.479513 915.6 333.210575 
" clip-path="url(#pcf5735b658)" style="fill: none; stroke: #2e8b57; stroke-width: 1.3; stroke-linecap: round"/>
    <path d="M 912.4 339.610575 
L 915.6 333.210575 
L 918.8 339.610575 
z
" clip-path="url(#pcf5735b658)" style="fill: #2e8b57; stroke: #2e8b57; stroke-width: 1.3; stroke-linecap: round"/>
   </g>
   <g id="patch_13">
    <path d="M 983.4 347.201895 
Q 983.4 339.479513 983.4 333.210575 
" clip-path="url(#pcf5735b658)" style="fill: none; stroke: #2e8b57; stroke-width: 1.3; stroke-linecap: round"/>
    <path d="M 980.2 339.610575 
L 983.4 333.210575 
L 986.6 339.610575 
z
" clip-path="url(#pcf5735b658)" style="fill: #2e8b57; stroke: #2e8b57; stroke-width: 1.3; stroke-linecap: round"/>
   </g>
   <g id="patch_14">
    <path d="M 71.64 513 
L 511.56 513 
Q 520.2 513 520.2 504.36 
L 520.2 406.44 
Q 520.2 397.8 511.56 397.8 
L 71.64 397.8 
Q 63 397.8 63 406.44 
L 63 504.36 
Q 63 513 71.64 513 
z
" clip-path="url(#pcf5735b658)" style="fill: #fceeee; stroke: #d64545; stroke-width: 2; stroke-linejoin: miter"/>
   </g>
   <g id="patch_15">
    <path d="M 633.24 513 
L 1080.36 513 
Q 1089 513 1089 504.36 
L 1089 406.44 
Q 1089 397.8 1080.36 397.8 
L 633.24 397.8 
Q 624.6 397.8 624.6 406.44 
L 624.6 504.36 
Q 624.6 513 633.24 513 
z
" clip-path="url(#pcf5735b658)" style="fill: #eef8f2; stroke: #2e8b57; stroke-width: 2; stroke-linejoin: miter"/>
   </g>
   <g id="line2d_1">
    <path d="M 50.4 104.4 
L 1101.6 104.4 
" clip-path="url(#pcf5735b658)" style="fill: none; stroke: #d7dfea; stroke-width: 1.2; stroke-linecap: square"/>
   </g>
   <g id="line2d_2">
    <path d="M 237.6 180 
L 1051.2 180 
" clip-path="url(#pcf5735b658)" style="fill: none; stroke: #d7dfea; stroke-width: 10"/>
   </g>
   <g id="line2d_3">
    <path d="M 237.6 180 
L 1051.2 180 
" clip-path="url(#pcf5735b658)" style="fill: none; stroke: #d64545; stroke-opacity: 0.35; stroke-width: 10"/>
   </g>
   <g id="line2d_4">
    <path d="M 237.6 324 
L 1051.2 324 
" clip-path="url(#pcf5735b658)" style="fill: none; stroke: #d7dfea; stroke-width: 10"/>
   </g>
   <g id="text_1">
    <text style="font-weight: 700; font-size: 27px; font-family: 'DejaVu Sans'; text-anchor: start; fill: #16324f" x="50.4" y="67.973906" transform="rotate(-0 50.4 67.973906)">Birinci kırılma: geleceğe bakma hatası</text>
   </g>
   <g id="text_2">
    <text style="font-size: 14px; font-family: 'DejaVu Sans'; text-anchor: start; fill: #617086" x="51.84" y="95.952188" transform="rotate(-0 51.84 95.952188)">CUSUM taban değerleri yalnız geçmişten hesaplanacak şekilde düzeltildi</text>
   </g>
   <g id="text_3">
    <text style="font-weight: 700; font-size: 17px; font-family: 'DejaVu Sans'; text-anchor: start; fill: #d64545" x="64.8" y="154.8" transform="rotate(-0 64.8 154.8)">Düzeltme öncesi</text>
   </g>
   <g id="text_4">
    <text style="font-size: 12.5px; font-family: 'DejaVu Sans'; text-anchor: middle; fill: #b23b3b" x="712.8" y="212.4" transform="rotate(-0 712.8 212.4)">uçuşun tamamından hesaplanan taban — geleceğe bakıyor</text>
   </g>
   <g id="text_5">
    <text style="font-weight: 700; font-size: 17px; font-family: 'DejaVu Sans'; text-anchor: start; fill: #2e8b57" x="64.8" y="298.8" transform="rotate(-0 64.8 298.8)">Düzeltme sonrası</text>
   </g>
   <g id="text_6">
    <text style="font-size: 12.5px; font-family: 'DejaVu Sans'; text-anchor: middle; fill: #2e8b57" x="712.8" y="360" transform="rotate(-0 712.8 360)">her an yalnız geçmiş ve mevcut bilgi kullanılıyor (causal)</text>
   </g>
   <g id="text_7">
    <text style="font-weight: 700; font-size: 14px; font-family: 'DejaVu Sans'; text-anchor: middle; fill: #d64545" x="291.6" y="431.837812" transform="rotate(-0 291.6 431.837812)">alt_error_cusum uçuş ROC-AUC</text>
   </g>
   <g id="text_8">
    <text style="font-size: 22px; font-family: 'DejaVu Sans'; text-anchor: middle; fill: #172033" x="291.6" y="478.935313" transform="rotate(-0 291.6 478.935313)">0,878  →  0,611</text>
   </g>
   <g id="text_9">
    <text style="font-weight: 700; font-size: 14px; font-family: 'DejaVu Sans'; text-anchor: middle; fill: #2e8b57" x="856.8" y="432.034688" transform="rotate(-0 856.8 432.034688)">Yeni en güçlü tekil sinyal</text>
   </g>
   <g id="text_10">
    <text style="font-size: 20px; font-family: 'DejaVu Sans'; text-anchor: middle; fill: #172033" x="856.8" y="477.135937" transform="rotate(-0 856.8 477.135937)">cross-track error: 0,751</text>
   </g>
   <g id="text_11">
    <text style="font-weight: 700; font-size: 17px; font-family: 'DejaVu Sans'; text-anchor: middle; fill: #16324f" x="576" y="565.2" transform="rotate(-0 576 565.2)">Bu bir performans kaybı değil, bir dürüstleşmedir.</text>
   </g>
   <g id="text_12">
    <text style="font-size: 10.5px; font-family: 'DejaVu Sans'; text-anchor: end; fill: #617086" x="1101.6" y="622.8" transform="rotate(-0 1101.6 622.8)">Kaynak: 05_failure_and_fix_inventory.md; 09_number_consistency_audit.md</text>
   </g>
  </g>
 </g>
 <defs>
  <clipPath id="pcf5735b658">
   <rect x="0" y="0" width="1152" height="648"/>
  </clipPath>
 </defs>
</svg>
